├é┬▒├é┬▒├é┬▒├é┬▒├é┬▒├é┬▒├é┬▒├é┬▒├é┬▒├é┬▒├é┬▒├é┬▒├é┬▒├é┬▒├é┬▒├é┬▒├é┬▒├é┬▒├é┬▒├é┬▒├é┬▒├é┬▒├é┬▒├é┬▒├é┬▒├é┬▒├é┬▒├é┬▒├é┬▒├é┬▒>>www.tornster.com<<├é┬▒├é┬▒├é┬▒├é┬▒├é┬▒├é┬▒├é┬▒├é┬▒├é┬▒├é┬▒├é┬▒├é┬▒├é┬▒├é┬▒├é┬▒├é┬▒├é┬▒├é┬▒├é┬▒├é┬▒├é┬▒├é┬▒├é┬▒├é┬▒├é┬▒├é┬▒├é┬▒├é┬▒├é┬▒├é┬▒
├é┬▒                                                                              ├é┬▒
├é┬▒ INFO:                                                                        ├é┬▒
├é┬▒                                                                              ├é┬▒
├é┬▒ General                                                                      ├é┬▒
├é┬▒ Complete name                    : Be Cool                                   ├é┬▒
├é┬▒ Genre                            : Comedy / Crime                            ├é┬▒
├é┬▒ Format                           : AVI                                       ├é┬▒
├é┬▒ Format/Info                      : Audio Video Interleave                    ├é┬▒
├é┬▒ File size                        : 1.37 GiB                                  ├é┬▒
├é┬▒ Duration                         : 1h 54mn                                   ├é┬▒
├é┬▒ Overall bit rate                 : 1 707 Kbps                                ├é┬▒
├é┬▒ Writing application              : VirtualDubMod 1.5.4.1 (build 2178/release)├é┬▒
├é┬▒ Writing library                  : VirtualDubMod build 2178/release          ├é┬▒
├é┬▒                                                                              ├é┬▒
├é┬▒ Video                                                                        ├é┬▒
├é┬▒ Format                           : MPEG-4 Visual                             ├é┬▒
├é┬▒ Format settings, BVOP            : Yes                                       ├é┬▒
├é┬▒ Format settings, QPel            : No                                        ├é┬▒
├é┬▒ Format settings, GMC             : No warppoints                             ├é┬▒
├é┬▒ Format settings, Matrix          : Default                                   ├é┬▒
├é┬▒ Codec ID                         : DX50                                      ├é┬▒
├é┬▒ Codec ID/Hint                    : DivX 5                                    ├é┬▒
├é┬▒ Duration                         : 1h 54mn                                   ├é┬▒
├é┬▒ Bit rate                         : 1 252 Kbps                                ├é┬▒
├é┬▒ Width                            : 720 pixels                                ├é┬▒
├é┬▒ Height                           : 320 pixels                                ├é┬▒
├é┬▒ Display aspect ratio             : 2.25                                      ├é┬▒
├é┬▒ Frame rate                       : 25.000 fps                                ├é┬▒
├é┬▒ Resolution                       : 24 bits                                   ├é┬▒
├é┬▒ Colorimetry                      : 4:2:0                                     ├é┬▒
├é┬▒ Scan type                        : Progressive                               ├é┬▒
├é┬▒ Bits/(Pixel*Frame)               : 0.217                                     ├é┬▒
├é┬▒ Stream size                      : 1.00 GiB (73%)                            ├é┬▒
├é┬▒ Writing library                  : DivX 2816                                 ├é┬▒
├é┬▒                                                                              ├é┬▒
├é┬▒ Audio                                                                        ├é┬▒
├é┬▒ Format                           : AC-3                                      ├é┬▒
├é┬▒ Format/Info                      : Audio Coding 3                            ├é┬▒
├é┬▒ Codec ID                         : 2000                                      ├é┬▒
├é┬▒ Duration                         : 1h 54mn                                   ├é┬▒
├é┬▒ Bit rate mode                    : Constant                                  ├é┬▒
├é┬▒ Bit rate                         : 448 Kbps                                  ├é┬▒
├é┬▒ Channel(s)                       : 6 channels                                ├é┬▒
├é┬▒ Channel positions                : Front: L C R, Surround: L R, LFE          ├é┬▒
├é┬▒ Sampling rate                    : 48.0 KHz                                  ├é┬▒
├é┬▒ Stream size                      : 367 MiB (26%)                             ├é┬▒
├é┬▒ Alignment                        : Split accross interleaves                 ├é┬▒
├é┬▒ Interleave, duration             : 80 ms (2.00 video frames)                 ├é┬▒
├é┬▒ Interleave, preload duration     : 500 ms                                    ├é┬▒
├é┬▒ Language                         : English                                   ├é┬▒
├é┬▒ Subtitles                        : English                                   ├é┬▒
├é┬▒                                                                              ├é┬▒
├é┬▒ IMDb Rating                      : 5.6/10                                    ├é┬▒
├é┬▒ IMDb URL                         : http://www.imdb.com/title/tt0377471/      ├é┬▒
├é┬▒                                                                              ├é┬▒
├é┬▒├é┬░├é┬░├é┬░├é┬░├é┬░├é┬░├é┬░├é┬░├é┬░├é┬░├é┬░├é┬░├é┬░├é┬░├é┬░├é┬░├é┬░├é┬░├é┬░├é┬░├é┬░├é┬░├é┬░├é┬░├é┬░├é┬░├é┬░├é┬░├é┬░├é┬░├é┬░├é┬░├é┬░├é┬░├é┬░├é┬░├é┬░├é┬░├é┬░├é┬░├é┬░├é┬░├é┬░├é┬░├é┬░├é┬░├é┬░├é┬░├é┬░├é┬░├é┬░├é┬░├é┬░├é┬░├é┬░├é┬░├é┬░├é┬░├é┬░├é┬░├é┬░├é┬░├é┬░├é┬░├é┬░├é┬░├é┬░├é┬░├é┬░├é┬░├é┬░├é┬░├é┬░├é┬░├é┬░├é┬░├é┬░├é┬░├é┬▒
├é┬▒                                                                              ├é┬▒
├é┬▒ John Travolta is back as Chili Palmer in Be Cool, a sequel to the comedy     ├é┬▒
├é┬▒ smash Get Shorty. This time, Chili becomes a different kind of "hit" man -   ├é┬▒
├é┬▒ he abandons the movie industry to bring his wiseguy skills and negotiation   ├é┬▒
├é┬▒ tactics to the music business. When a friend is offed while they're at lunch,├é┬▒
├é┬▒ Chili takes the opportunity to visit the guy's wife, Edie, and pitch himself ├é┬▒
├é┬▒ as her new business partner at an independent record label. With a promising ├é┬▒
├é┬▒ young pop-star-in-training as his protege, Chili has to juggle her faux-     ├é┬▒
├é┬▒ urban manager, and his gay, wannabe-actor bodyguard, Russian mobsters, and   ├é┬▒
├é┬▒ an eloquent gangsta music producer to save the label and land a hit.         ├é┬▒
├é┬▒                                                                              ├é┬▒
├é┬▒├é┬░├é┬░├é┬░├é┬░├é┬░├é┬░├é┬░├é┬░├é┬░├é┬░├é┬░├é┬░├é┬░├é┬░├é┬░├é┬░├é┬░├é┬░├é┬░├é┬░├é┬░├é┬░├é┬░├é┬░├é┬░├é┬░├é┬░├é┬░├é┬░├é┬░├é┬░├é┬░├é┬░├é┬░├é┬░├é┬░├é┬░├é┬░├é┬░├é┬░├é┬░├é┬░├é┬░├é┬░├é┬░├é┬░├é┬░├é┬░├é┬░├é┬░├é┬░├é┬░├é┬░├é┬░├é┬░├é┬░├é┬░├é┬░├é┬░├é┬░├é┬░├é┬░├é┬░├é┬░├é┬░├é┬░├é┬░├é┬░├é┬░├é┬░├é┬░├é┬░├é┬░├é┬░├é┬░├é┬░├é┬░├é┬░├é┬▒
├é┬▒                                                                              ├é┬▒
├é┬▒ CAST:                                                                        ├é┬▒
├é┬▒                                                                              ├é┬▒
├é┬▒ John Travolta..............Chili Palmer                                      ├é┬▒
├é┬▒ Uma Thurman................Edie Athens                                       ├é┬▒
├é┬▒ Vince Vaughn...............Raji                                              ├é┬▒
├é┬▒ Cedric the Entertainer.....Sin LaSalle                                       ├é┬▒
├é┬▒ Steven Tyler...............Himself                                           ├é┬▒
├é┬▒ Christina Milian...........Linda Moon                                        ├é┬▒
├é┬▒ The Rock...................Elliot Wilhelm                                    ├é┬▒  
├é┬▒                                                                              ├é┬▒
├é┬▒├é┬░├é┬░├é┬░├é┬░├é┬░├é┬░├é┬░├é┬░├é┬░├é┬░├é┬░├é┬░├é┬░├é┬░├é┬░├é┬░├é┬░├é┬░├é┬░├é┬░├é┬░├é┬░├é┬░├é┬░├é┬░├é┬░├é┬░├é┬░├é┬░├é┬░├é┬░├é┬░├é┬░├é┬░├é┬░├é┬░├é┬░├é┬░├é┬░├é┬░├é┬░├é┬░├é┬░├é┬░├é┬░├é┬░├é┬░├é┬░├é┬░├é┬░├é┬░├é┬░├é┬░├é┬░├é┬░├é┬░├é┬░├é┬░├é┬░├é┬░├é┬░├é┬░├é┬░├é┬░├é┬░├é┬░├é┬░├é┬░├é┬░├é┬░├é┬░├é┬░├é┬░├é┬░├é┬░├é┬░├é┬░├é┬░├é┬▒
├é┬▒                                                                              ├é┬▒
├é┬▒                            Please remember to seed                           ├é┬▒
├é┬▒                                                                              ├é┬▒
├é┬▒                              Standalone Enabled                              ├é┬▒
├é┬▒                                                                              ├é┬▒
├é┬▒                               www.tornster.com                               ├é┬▒
├é┬▒                                                                              ├é┬▒
├é┬▒├é┬▒├é┬▒├é┬▒├é┬▒├é┬▒├é┬▒├é┬▒├é┬▒├é┬▒├é┬▒├é┬▒├é┬▒├é┬▒├é┬▒├é┬▒├é┬▒├é┬▒├é┬▒├é┬▒├é┬▒├é┬▒├é┬▒├é┬▒├é┬▒├é┬▒├é┬▒├é┬▒├é┬▒├é┬▒├é┬▒├é┬▒├é┬▒├é┬▒├é┬▒├é┬▒├é┬▒├é┬▒├é┬▒├é┬▒├é┬▒├é┬▒├é┬▒├é┬▒├é┬▒├é┬▒├é┬▒├é┬▒├é┬▒├é┬▒├é┬▒├é┬▒├é┬▒├é┬▒├é┬▒├é┬▒├é┬▒├é┬▒├é┬▒├é┬▒├é┬▒├é┬▒├é┬▒├é┬▒├é┬▒├é┬▒├é┬▒├é┬▒├é┬▒├é┬▒├é┬▒├é┬▒├é┬▒├é┬▒├é┬▒├é┬▒├é┬▒├é┬▒├é┬▒├é┬▒